# xmcd
#
# Track frame offsets:
# 150
# 18862
# 33352
# 54514
# 73375
# 100215
# 119502
# 136772
# 158387
# 173809
# 199159
# 219425
#
# Disc length: 3185 seconds
#
#
# Revision: 0
# Processed by: cddbd v1.5.1PL0 Copyright (c) Steve Scherf et al.
# Submitted via: FreeRIP 2.70 
#
DISCID=a00c6f0c
DTITLE=Gomes, Anthony - Blues in Technicolor
DYEAR=1998
DGENRE=Blues
TTITLE0=Blues in Technicolor
TTITLE1=Gonna Have a Party
TTITLE2=Bad Luck Child
TTITLE3=Outta the Cathouse
TTITLE4=Misery for Company
TTITLE5=Love's Got the Power
TTITLE6=Hard Year for the Blues
TTITLE7=Wolf in My Henhouse
TTITLE8=Shame on You
TTITLE9=Grand New Day
TTITLE10=High Calorie Woman
TTITLE11=Monday Kinda Tuesday
EXTD=
EXTT0=
EXTT1=
EXTT2=
EXTT3=
EXTT4=
EXTT5=
EXTT6=
EXTT7=
EXTT8=
EXTT9=
EXTT10=
EXTT11=
PLAYORDER=
